<?xml version="1.0" encoding="UTF-8" standalone="no"?>
<!DOCTYPE svg PUBLIC "-//W3C//DTD SVG 1.1//EN" "http://www.w3.org/Graphics/SVG/1.1/DTD/svg11.dtd">
<svg width="100%" height="100%" viewBox="0 0 344 163" version="1.1" xmlns="http://www.w3.org/2000/svg" xmlns:xlink="http://www.w3.org/1999/xlink" xml:space="preserve" xmlns:serif="http://www.serif.com/" style="fill-rule:evenodd;clip-rule:evenodd;stroke-linejoin:round;stroke-miterlimit:2;">
    <g transform="matrix(1,0,0,1,-340,-267)">
        <g>
            <g>
                <g id="path482040" transform="matrix(1.82,0,0,1.82,-419.789,428.554)">
                    <path d="M417.889,0L424.225,0L424.225,-21.456L431.425,-21.456L431.425,-27.576L424.225,-27.576L424.225,-42.84L432.865,-42.84L432.865,-48.96L417.889,-48.96L417.889,0Z" style="fill:white;fill-rule:nonzero;"/>
                </g>
                <g id="path482042" transform="matrix(1.82,0,0,1.82,-419.789,428.554)">
                    <path d="M445.893,-22.32L436.029,-22.32L436.029,0L441.789,0L441.789,-6.048L444.525,-6.048C446.901,-6.048 448.125,-4.608 448.125,-2.016L448.125,0L454.461,0L454.461,-1.8C454.461,-4.536 452.373,-7.128 449.205,-8.208L449.205,-9.072C452.229,-10.008 454.317,-12.168 454.317,-14.976L454.317,-15.48C454.317,-19.44 451.797,-22.32 445.893,-22.32ZM436.029,-34.776C436.029,-29.664 440.133,-26.28 445.245,-26.28C450.357,-26.28 454.461,-29.664 454.461,-34.776L454.461,-40.824C454.461,-45.936 450.357,-49.32 445.245,-49.32C440.133,-49.32 436.029,-45.936 436.029,-40.824L436.029,-34.776ZM441.789,-11.16L441.789,-16.92L445.821,-16.92C447.837,-16.92 449.277,-15.624 449.277,-14.04C449.277,-12.456 447.837,-11.16 445.821,-11.16L441.789,-11.16ZM441.789,-34.632L441.789,-40.968C441.789,-42.912 443.229,-43.848 445.245,-43.848C447.261,-43.848 448.701,-42.912 448.701,-40.968L448.701,-34.632C448.701,-32.688 447.261,-31.752 445.245,-31.752C443.229,-31.752 441.789,-32.688 441.789,-34.632Z" style="fill:white;fill-rule:nonzero;"/>
                </g>
                <g id="path482044" transform="matrix(1.82,0,0,1.82,-419.789,428.554)">
                    <path d="M457.686,-40.104L457.686,-8.856C457.686,-3.744 461.79,0.36 466.902,0.36C472.014,0.36 476.118,-3.744 476.118,-8.856L476.118,-40.104C476.118,-45.216 472.014,-49.32 466.902,-49.32C461.79,-49.32 457.686,-45.216 457.686,-40.104ZM464.022,-8.856L464.022,-40.104C464.022,-41.76 465.246,-43.128 466.902,-43.128C468.558,-43.128 469.782,-41.76 469.782,-40.104L469.782,-8.856C469.782,-7.2 468.558,-5.832 466.902,-5.832C465.246,-5.832 464.022,-7.2 464.022,-8.856Z" style="fill:white;fill-rule:nonzero;"/>
                </g>
                <g id="path482046" transform="matrix(1.82,0,0,1.82,-419.789,428.554)">
                    <path d="M479.342,0L485.678,0L485.678,-21.456L491.438,-21.456L491.438,0L497.774,0L497.774,-48.96L491.438,-48.96L491.438,-27.576L485.678,-27.576L485.678,-48.96L479.342,-48.96L479.342,0Z" style="fill:white;fill-rule:nonzero;"/>
                </g>
                <g id="path482048" transform="matrix(1.82,0,0,1.82,-419.789,428.554)">
                    <path d="M500.998,-40.104L500.998,-9.72L507.334,-9.72L507.334,-26.28L513.094,-26.28L513.094,-9.72L519.43,-9.72L519.43,-40.104C519.43,-45.216 515.326,-49.32 510.214,-49.32C505.102,-49.32 500.998,-45.216 500.998,-40.104ZM500.998,0L519.43,0L519.43,-6.12L500.998,-6.12L500.998,0ZM507.334,-32.4L507.334,-40.104C507.334,-41.76 508.558,-43.128 510.214,-43.128C511.87,-43.128 513.094,-41.76 513.094,-40.104L513.094,-32.4L507.334,-32.4Z" style="fill:rgb(125,211,252);fill-rule:nonzero;"/>
                </g>
                <g id="path482050" transform="matrix(1.82,0,0,1.82,-419.789,428.554)">
                    <path d="M522.654,-40.104L522.654,-8.856C522.654,-3.744 526.758,0.36 531.87,0.36C536.982,0.36 541.086,-3.744 541.086,-8.856L541.086,-16.56L534.75,-16.56L534.75,-8.856C534.75,-7.2 533.526,-5.832 531.87,-5.832C530.214,-5.832 528.99,-7.2 528.99,-8.856L528.99,-40.104C528.99,-41.76 530.214,-43.128 531.87,-43.128C533.526,-43.128 534.75,-41.76 534.75,-40.104L534.75,-32.4L541.086,-32.4L541.086,-40.104C541.086,-45.216 536.982,-49.32 531.87,-49.32C526.758,-49.32 522.654,-45.216 522.654,-40.104Z" style="fill:white;fill-rule:nonzero;"/>
                </g>
                <g id="path482052" transform="matrix(1.82,0,0,1.82,-419.789,428.554)">
                    <path d="M544.311,-48.96L544.311,0L550.647,0L550.647,-17.64L551.007,-18.648L557.127,0L563.463,0L554.895,-26.928L563.463,-48.96L557.127,-48.96L550.647,-31.32L550.647,-48.96L544.311,-48.96Z" style="fill:white;fill-rule:nonzero;"/>
                </g>
                <g id="path482054" transform="matrix(1.82,0,0,1.82,-419.789,428.554)">
                    <path d="M575.831,-22.32L565.967,-22.32L565.967,0L571.727,0L571.727,-6.048L574.463,-6.048C576.839,-6.048 578.063,-4.608 578.063,-2.016L578.063,0L584.399,0L584.399,-1.8C584.399,-4.536 582.311,-7.128 579.143,-8.208L579.143,-9.072C582.167,-10.008 584.255,-12.168 584.255,-14.976L584.255,-15.48C584.255,-19.44 581.735,-22.32 575.831,-22.32ZM565.967,-30.96C565.967,-28.44 567.839,-26.568 570.359,-26.568L584.399,-26.568L584.399,-31.968L572.807,-31.968C572.231,-31.968 571.727,-32.472 571.727,-33.048L571.727,-35.424L582.959,-35.424L582.959,-40.104L571.727,-40.104L571.727,-43.488L584.399,-43.488L584.399,-48.888L565.967,-48.888L565.967,-30.96ZM571.727,-11.16L571.727,-16.92L575.759,-16.92C577.775,-16.92 579.215,-15.624 579.215,-14.04C579.215,-12.456 577.775,-11.16 575.759,-11.16L571.727,-11.16Z" style="fill:white;fill-rule:nonzero;"/>
                </g>
                <g id="path482056" transform="matrix(1.82,0,0,1.82,-419.789,428.554)">
                    <path d="M599.719,-14.4L599.719,-8.856C599.719,-7.2 598.495,-5.832 596.839,-5.832C595.183,-5.832 593.959,-7.2 593.959,-8.856L593.959,-16.56L587.623,-16.56L587.623,-8.856C587.623,-3.744 591.727,0.36 596.839,0.36C601.951,0.36 606.055,-3.744 606.055,-8.856L606.055,-14.4C606.055,-19.584 602.167,-23.616 599.071,-26.856C596.047,-30.024 593.959,-32.256 593.959,-34.56L593.959,-40.104C593.959,-41.76 595.183,-43.128 596.839,-43.128C598.495,-43.128 599.719,-41.76 599.719,-40.104L599.719,-32.4L606.055,-32.4L606.055,-40.104C606.055,-45.216 601.951,-49.32 596.839,-49.32C591.727,-49.32 587.623,-45.216 587.623,-40.104L587.623,-34.56C587.623,-29.664 591.367,-25.776 594.463,-22.536C597.487,-19.368 599.719,-16.992 599.719,-14.4Z" style="fill:white;fill-rule:nonzero;"/>
                </g>
            </g>
            <g transform="matrix(0.841048,0,0,1,84.0555,0.388852)">
                <path d="M500.5,317.594L510.012,317.594" style="fill:none;"/>
                <path d="M500.5,325.594C495.25,325.594 490.988,322.009 490.988,317.594C490.988,313.179 495.25,309.594 500.5,309.594L510.012,309.594C515.262,309.594 519.524,313.179 519.524,317.594C519.524,322.009 515.262,325.594 510.012,325.594L500.5,325.594Z" style="fill:rgb(186,230,253);"/>
            </g>
            <g transform="matrix(0.905294,0,0,1,53.5636,-1.4431)">
                <path d="M467.734,298.618L538.429,298.618" style="fill:none;"/>
                <path d="M467.734,306.618C462.857,306.618 458.897,303.033 458.897,298.618C458.897,294.202 462.857,290.618 467.734,290.618L538.429,290.618C543.306,290.618 547.266,294.202 547.266,298.618C547.266,303.033 543.306,306.618 538.429,306.618L467.734,306.618Z" style="fill:rgb(125,211,252);"/>
            </g>
            <g transform="matrix(0.886841,0,0,1,63.603,0)">
                <path d="M430.063,276.366L574.395,276.366" style="fill:none;"/>
                <path d="M430.063,284.366C425.084,284.366 421.042,280.782 421.042,276.366C421.042,271.951 425.084,268.366 430.063,268.366L574.395,268.366C579.374,268.366 583.416,271.951 583.416,276.366C583.416,280.782 579.374,284.366 574.395,284.366L430.063,284.366Z" style="fill:rgb(56,189,248);"/>
            </g>
        </g>
    </g>
</svg>
